<svg width="989" height="377" viewBox="0 0 989 377" fill="none" xmlns="http://www.w3.org/2000/svg">
<g clip-path="url(#clip0_98_60103)">
<path d="M471.93 166.67C471.93 239.31 427.46 286.12 365.61 286.12C335.32 286.12 310.12 273.41 295.72 253.93V376.13H249.55V54.2102H286.82L293.17 80.4702H295.29C308.42 64.5902 332.14 50.1802 365.18 50.1802C430.41 50.1802 471.92 96.5602 471.92 166.66M295.72 168.36C295.72 217.07 320.71 246.72 360.31 246.72C399.91 246.72 425.75 217.28 425.75 168.36C425.75 119.44 400.12 89.3602 360.31 89.3602C320.5 89.3602 295.72 119.01 295.72 168.36Z" fill="#133F26"/>
<path d="M665.16 281.88V54.21H702.43L712.17 73.91H714.08C731.66 56.97 754.74 49.98 778.67 49.98C804.08 49.98 828.44 56.97 840.09 83.44H842.21C862.33 58.24 887.74 49.98 914.22 49.98C975.64 49.98 988.77 97.84 988.77 134.69V281.88H941.97V142.95C941.97 119.86 933.71 90.85 900.25 90.85C872.08 90.85 850.06 110.12 850.06 139.14V281.88H803.68V139.14C803.68 104.41 785.68 90.85 761.96 90.85C734.64 90.85 711.77 108.43 711.77 140.83V281.88H665.18H665.16Z" fill="#133F26"/>
<path d="M185.42 184.96C187.21 178.64 188.11 172.06 188.11 165.37C188.11 125.29 155.5 92.6799 115.42 92.6799C75.3402 92.6799 42.7302 125.29 42.7302 165.37C42.7302 172.04 43.6402 178.63 45.4202 184.94L47.0402 190.68L41.3202 188.97C30.5602 185.75 19.4102 184.11 8.16023 184.11H1.50023L1.10023 181.29C0.370234 176.03 -0.00976562 170.68 -0.00976562 165.37C0.000234375 101.87 51.6702 50.1899 115.19 50.1899C178.71 50.1899 230.39 101.86 230.39 165.37C230.39 170.68 230.02 176.04 229.28 181.29L228.89 184.11H222.55C211.27 184.12 200.16 185.76 189.53 188.98L183.8 190.71L185.43 184.95L185.42 184.96Z" fill="#133F26"/>
<path d="M228.19 189.29L227.64 191.72C216.58 241.59 173.24 278.58 122.26 281.65C119.98 281.8 117.69 281.88 115.52 281.88C113.35 281.88 110.95 281.83 108.6 281.69C57.3704 278.79 13.8404 241.8 2.74043 191.72L2.19043 189.29H5.03043C17.6304 189.29 30.0304 191.32 41.8904 195.31C67.5104 203.96 89.3804 221.49 103.5 244.67C107.73 251.64 111.22 259.06 113.86 266.69C114.35 268.12 114.84 269.56 115.28 271.02C115.32 271.18 115.37 271.33 115.41 271.47C115.89 269.85 116.41 268.27 116.96 266.69C119.61 259.05 123.09 251.64 127.32 244.67C141.44 221.48 163.32 203.96 188.93 195.32C200.74 191.33 213.11 189.3 225.67 189.28H228.17L228.19 189.29Z" fill="#133F26"/>
<path d="M551.4 93.37V98.79C560.38 98.79 566.26 100.81 569.02 104.85C571.79 108.9 573.16 115.55 573.16 124.8V180.73C573.16 189.98 573.3 198.18 573.58 205.33C573.85 212.49 575.23 218.31 577.72 222.78C582.69 231.75 590.63 236.43 601.56 236.88C612.47 237.31 624.91 237.24 638.86 236.66V281.32C624.07 281.75 609.61 281.93 595.44 281.85C581.27 281.78 568.61 279.33 557.42 274.48C546.22 269.64 537.72 261.66 531.92 250.53C526.81 240.42 524.12 230.08 523.84 219.52C523.56 208.97 523.43 197.05 523.43 183.75V93.36H482.81V54.2H523.43V0H573.17V54.21H638.87V93.37H551.41H551.4Z" fill="#133F26"/>
</g>
<defs>
<clipPath id="clip0_98_60103">
<rect width="988.77" height="376.12" fill="white"/>
</clipPath>
</defs>
</svg>
